<?xml version="1.0" encoding="UTF-8" standalone="no"?>
<svg
   xmlns:dc="http://purl.org/dc/elements/1.1/"
   xmlns:cc="http://creativecommons.org/ns#"
   xmlns:rdf="http://www.w3.org/1999/02/22-rdf-syntax-ns#"
   xmlns:svg="http://www.w3.org/2000/svg"
   xmlns="http://www.w3.org/2000/svg"
   xmlns:sodipodi="http://sodipodi.sourceforge.net/DTD/sodipodi-0.dtd"
   xmlns:inkscape="http://www.inkscape.org/namespaces/inkscape"
   version="1.0"
   id="Your_Icon"
   x="0px"
   y="0px"
   viewBox="0 0 100 100"
   enable-background="new 0 0 100 100"
   xml:space="preserve"
   height="100px"
   width="100px"
   inkscape:version="0.48.3.1 r9886"
   sodipodi:docname="icon_50379.svg"><metadata
   id="metadata207"><rdf:RDF><cc:Work
       rdf:about=""><dc:format>image/svg+xml</dc:format><dc:type
         rdf:resource="http://purl.org/dc/dcmitype/StillImage" /><dc:title></dc:title></cc:Work></rdf:RDF></metadata><defs
   id="defs205" /><sodipodi:namedview
   pagecolor="#ffffff"
   bordercolor="#666666"
   borderopacity="1"
   objecttolerance="10"
   gridtolerance="10"
   guidetolerance="10"
   inkscape:pageopacity="0"
   inkscape:pageshadow="2"
   inkscape:window-width="1200"
   inkscape:window-height="1870"
   id="namedview203"
   showgrid="false"
   inkscape:zoom="4.72"
   inkscape:cx="66.821151"
   inkscape:cy="122.72604"
   inkscape:window-x="0"
   inkscape:window-y="0"
   inkscape:window-maximized="1"
   inkscape:current-layer="Your_Icon" />

















































<g
   id="g3184"
   transform="matrix(0.88706766,-0.16990811,0.16990811,0.88706766,-7.9918963,9.0404877)"><g
     id="g3"
     style="stroke:none">
	<path
   id="path5"
   d="M 87.561,72 H 19.274 C 16.917,72 15,70.06 15,67.675 V 45.325 C 15,42.94 16.917,41 19.274,41 H 87.56 c 2.154,0 3.44,1.617 3.44,4.325 v 22.35 C 91,70.383 89.714,72 87.561,72 z M 19.274,43 C 18.021,43 17,44.043 17,45.325 v 22.35 C 17,68.957 18.021,70 19.274,70 H 87.56 C 87.954,70 89,70 89,67.675 V 45.325 C 89,43 87.954,43 87.561,43 H 19.274 z"
   inkscape:connector-curvature="0"
   style="fill:#000000;stroke:none" />
</g><g
     id="g7"
     style="stroke:none">
	<path
   id="path9"
   d="m 87.319,48.861 c -0.276,0 -0.5,-0.224 -0.5,-0.5 0,-2.167 0,-3.361 -3.181,-3.361 H 68 c -0.276,0 -0.5,-0.224 -0.5,-0.5 0,-0.276 0.224,-0.5 0.5,-0.5 h 15.639 c 4.181,0 4.181,2.217 4.181,4.361 -10e-4,0.277 -0.224,0.5 -0.501,0.5 z"
   inkscape:connector-curvature="0"
   style="fill:#000000;stroke:none" />
</g><g
     id="g11"
     style="stroke:none">
	<path
   id="path13"
   d="M 38,69 H 22.681 c -4.014,0 -4.34,-1.976 -4.34,-4.361 0,-0.276 0.224,-0.5 0.5,-0.5 0.276,0 0.5,0.224 0.5,0.5 0,2.146 0.155,3.361 3.34,3.361 H 38 c 0.276,0 0.5,0.224 0.5,0.5 0,0.276 -0.224,0.5 -0.5,0.5 z"
   inkscape:connector-curvature="0"
   style="fill:#000000;stroke:none" />
</g><g
     id="g15"
     style="stroke:none">
	<path
   id="path17"
   d="m 24.5,51 h -3 C 21.224,51 21,50.776 21,50.5 v -3 C 21,47.224 21.224,47 21.5,47 h 3 c 0.276,0 0.5,0.224 0.5,0.5 v 3 C 25,50.776 24.776,51 24.5,51 z M 22,50 h 2 v -2 h -2 v 2 z"
   inkscape:connector-curvature="0"
   style="fill:#000000;stroke:none" />
</g><g
     id="g19"
     style="stroke:none">
	<path
   id="path21"
   d="m 29.5,51 h -3 C 26.224,51 26,50.776 26,50.5 v -3 C 26,47.224 26.224,47 26.5,47 h 3 c 0.276,0 0.5,0.224 0.5,0.5 v 3 C 30,50.776 29.776,51 29.5,51 z M 27,50 h 2 v -2 h -2 v 2 z"
   inkscape:connector-curvature="0"
   style="fill:#000000;stroke:none" />
</g><g
     id="g23"
     style="stroke:none">
	<path
   id="path25"
   d="m 34.5,51 h -3 C 31.224,51 31,50.776 31,50.5 v -3 C 31,47.224 31.224,47 31.5,47 h 3 c 0.276,0 0.5,0.224 0.5,0.5 v 3 C 35,50.776 34.776,51 34.5,51 z M 32,50 h 2 v -2 h -2 v 2 z"
   inkscape:connector-curvature="0"
   style="fill:#000000;stroke:none" />
</g><g
     id="g27"
     style="stroke:none">
	<path
   id="path29"
   d="m 39.5,51 h -3 C 36.224,51 36,50.776 36,50.5 v -3 C 36,47.224 36.224,47 36.5,47 h 3 c 0.276,0 0.5,0.224 0.5,0.5 v 3 C 40,50.776 39.776,51 39.5,51 z M 37,50 h 2 v -2 h -2 v 2 z"
   inkscape:connector-curvature="0"
   style="fill:#000000;stroke:none" />
</g><g
     id="g31"
     style="stroke:none">
	<path
   id="path33"
   d="m 44.5,51 h -3 C 41.224,51 41,50.776 41,50.5 v -3 C 41,47.224 41.224,47 41.5,47 h 3 c 0.276,0 0.5,0.224 0.5,0.5 v 3 C 45,50.776 44.776,51 44.5,51 z M 42,50 h 2 v -2 h -2 v 2 z"
   inkscape:connector-curvature="0"
   style="fill:#000000;stroke:none" />
</g><g
     id="g35"
     style="stroke:none">
	<path
   id="path37"
   d="m 49.5,51 h -3 C 46.224,51 46,50.776 46,50.5 v -3 C 46,47.224 46.224,47 46.5,47 h 3 c 0.276,0 0.5,0.224 0.5,0.5 v 3 C 50,50.776 49.776,51 49.5,51 z M 47,50 h 2 v -2 h -2 v 2 z"
   inkscape:connector-curvature="0"
   style="fill:#000000;stroke:none" />
</g><g
     id="g39"
     style="stroke:none">
	<path
   id="path41"
   d="m 54.5,51 h -3 C 51.224,51 51,50.776 51,50.5 v -3 C 51,47.224 51.224,47 51.5,47 h 3 c 0.276,0 0.5,0.224 0.5,0.5 v 3 C 55,50.776 54.776,51 54.5,51 z M 52,50 h 2 v -2 h -2 v 2 z"
   inkscape:connector-curvature="0"
   style="fill:#000000;stroke:none" />
</g><g
     id="g43"
     style="stroke:none">
	<path
   id="path45"
   d="m 59.5,51 h -3 C 56.224,51 56,50.776 56,50.5 v -3 C 56,47.224 56.224,47 56.5,47 h 3 c 0.276,0 0.5,0.224 0.5,0.5 v 3 C 60,50.776 59.776,51 59.5,51 z M 57,50 h 2 v -2 h -2 v 2 z"
   inkscape:connector-curvature="0"
   style="fill:#000000;stroke:none" />
</g><g
     id="g47"
     style="stroke:none">
	<path
   id="path49"
   d="m 64.5,51 h -3 C 61.224,51 61,50.776 61,50.5 v -3 C 61,47.224 61.224,47 61.5,47 h 3 c 0.276,0 0.5,0.224 0.5,0.5 v 3 C 65,50.776 64.776,51 64.5,51 z M 62,50 h 2 v -2 h -2 v 2 z"
   inkscape:connector-curvature="0"
   style="fill:#000000;stroke:none" />
</g><g
     id="g51"
     style="stroke:none">
	<path
   id="path53"
   d="m 69.5,51 h -3 C 66.224,51 66,50.776 66,50.5 v -3 C 66,47.224 66.224,47 66.5,47 h 3 c 0.276,0 0.5,0.224 0.5,0.5 v 3 C 70,50.776 69.776,51 69.5,51 z M 67,50 h 2 v -2 h -2 v 2 z"
   inkscape:connector-curvature="0"
   style="fill:#000000;stroke:none" />
</g><g
     id="g55"
     style="stroke:none">
	<path
   id="path57"
   d="m 74.5,51 h -3 C 71.224,51 71,50.776 71,50.5 v -3 C 71,47.224 71.224,47 71.5,47 h 3 c 0.276,0 0.5,0.224 0.5,0.5 v 3 C 75,50.776 74.776,51 74.5,51 z M 72,50 h 2 v -2 h -2 v 2 z"
   inkscape:connector-curvature="0"
   style="fill:#000000;stroke:none" />
</g><g
     id="g59"
     style="stroke:none">
	<path
   id="path61"
   d="m 79.5,51 h -3 C 76.224,51 76,50.776 76,50.5 v -3 C 76,47.224 76.224,47 76.5,47 h 3 c 0.276,0 0.5,0.224 0.5,0.5 v 3 C 80,50.776 79.776,51 79.5,51 z M 77,50 h 2 v -2 h -2 v 2 z"
   inkscape:connector-curvature="0"
   style="fill:#000000;stroke:none" />
</g><g
     id="g63"
     style="stroke:none">
	<path
   id="path65"
   d="m 24.5,56 h -3 C 21.224,56 21,55.776 21,55.5 v -3 C 21,52.224 21.224,52 21.5,52 h 3 c 0.276,0 0.5,0.224 0.5,0.5 v 3 C 25,55.776 24.776,56 24.5,56 z M 22,55 h 2 v -2 h -2 v 2 z"
   inkscape:connector-curvature="0"
   style="fill:#000000;stroke:none" />
</g><g
     id="g67"
     style="stroke:none">
	<path
   id="path69"
   d="m 29.5,56 h -3 C 26.224,56 26,55.776 26,55.5 v -3 C 26,52.224 26.224,52 26.5,52 h 3 c 0.276,0 0.5,0.224 0.5,0.5 v 3 C 30,55.776 29.776,56 29.5,56 z M 27,55 h 2 v -2 h -2 v 2 z"
   inkscape:connector-curvature="0"
   style="fill:#000000;stroke:none" />
</g><g
     id="g71"
     style="stroke:none">
	<path
   id="path73"
   d="m 34.5,56 h -3 C 31.224,56 31,55.776 31,55.5 v -3 C 31,52.224 31.224,52 31.5,52 h 3 c 0.276,0 0.5,0.224 0.5,0.5 v 3 C 35,55.776 34.776,56 34.5,56 z M 32,55 h 2 v -2 h -2 v 2 z"
   inkscape:connector-curvature="0"
   style="fill:#000000;stroke:none" />
</g><g
     id="g75"
     style="stroke:none">
	<path
   id="path77"
   d="m 39.5,56 h -3 C 36.224,56 36,55.776 36,55.5 v -3 C 36,52.224 36.224,52 36.5,52 h 3 c 0.276,0 0.5,0.224 0.5,0.5 v 3 C 40,55.776 39.776,56 39.5,56 z M 37,55 h 2 v -2 h -2 v 2 z"
   inkscape:connector-curvature="0"
   style="fill:#000000;stroke:none" />
</g><g
     id="g79"
     style="stroke:none">
	<path
   id="path81"
   d="m 44.5,56 h -3 C 41.224,56 41,55.776 41,55.5 v -3 C 41,52.224 41.224,52 41.5,52 h 3 c 0.276,0 0.5,0.224 0.5,0.5 v 3 C 45,55.776 44.776,56 44.5,56 z M 42,55 h 2 v -2 h -2 v 2 z"
   inkscape:connector-curvature="0"
   style="fill:#000000;stroke:none" />
</g><g
     id="g83"
     style="stroke:none">
	<path
   id="path85"
   d="m 49.5,56 h -3 C 46.224,56 46,55.776 46,55.5 v -3 C 46,52.224 46.224,52 46.5,52 h 3 c 0.276,0 0.5,0.224 0.5,0.5 v 3 C 50,55.776 49.776,56 49.5,56 z M 47,55 h 2 v -2 h -2 v 2 z"
   inkscape:connector-curvature="0"
   style="fill:#000000;stroke:none" />
</g><g
     id="g87"
     style="stroke:none">
	<path
   id="path89"
   d="m 54.5,56 h -3 C 51.224,56 51,55.776 51,55.5 v -3 C 51,52.224 51.224,52 51.5,52 h 3 c 0.276,0 0.5,0.224 0.5,0.5 v 3 C 55,55.776 54.776,56 54.5,56 z M 52,55 h 2 v -2 h -2 v 2 z"
   inkscape:connector-curvature="0"
   style="fill:#000000;stroke:none" />
</g><g
     id="g91"
     style="stroke:none">
	<path
   id="path93"
   d="m 59.5,56 h -3 C 56.224,56 56,55.776 56,55.5 v -3 C 56,52.224 56.224,52 56.5,52 h 3 c 0.276,0 0.5,0.224 0.5,0.5 v 3 C 60,55.776 59.776,56 59.5,56 z M 57,55 h 2 v -2 h -2 v 2 z"
   inkscape:connector-curvature="0"
   style="fill:#000000;stroke:none" />
</g><g
     id="g95"
     style="stroke:none">
	<path
   id="path97"
   d="m 64.5,56 h -3 C 61.224,56 61,55.776 61,55.5 v -3 C 61,52.224 61.224,52 61.5,52 h 3 c 0.276,0 0.5,0.224 0.5,0.5 v 3 C 65,55.776 64.776,56 64.5,56 z M 62,55 h 2 v -2 h -2 v 2 z"
   inkscape:connector-curvature="0"
   style="fill:#000000;stroke:none" />
</g><g
     id="g99"
     style="stroke:none">
	<path
   id="path101"
   d="m 69.5,56 h -3 C 66.224,56 66,55.776 66,55.5 v -3 C 66,52.224 66.224,52 66.5,52 h 3 c 0.276,0 0.5,0.224 0.5,0.5 v 3 C 70,55.776 69.776,56 69.5,56 z M 67,55 h 2 v -2 h -2 v 2 z"
   inkscape:connector-curvature="0"
   style="fill:#000000;stroke:none" />
</g><g
     id="g103"
     style="stroke:none">
	<path
   id="path105"
   d="m 74.5,56 h -3 C 71.224,56 71,55.776 71,55.5 v -3 C 71,52.224 71.224,52 71.5,52 h 3 c 0.276,0 0.5,0.224 0.5,0.5 v 3 C 75,55.776 74.776,56 74.5,56 z M 72,55 h 2 v -2 h -2 v 2 z"
   inkscape:connector-curvature="0"
   style="fill:#000000;stroke:none" />
</g><g
     id="g107"
     style="stroke:none">
	<path
   id="path109"
   d="m 79.5,56 h -3 C 76.224,56 76,55.776 76,55.5 v -3 C 76,52.224 76.224,52 76.5,52 h 3 c 0.276,0 0.5,0.224 0.5,0.5 v 3 C 80,55.776 79.776,56 79.5,56 z M 77,55 h 2 v -2 h -2 v 2 z"
   inkscape:connector-curvature="0"
   style="fill:#000000;stroke:none" />
</g><g
     id="g111"
     style="fill:#000000;fill-opacity:1;stroke:none">
	<path
   id="path113"
   d="m 84.5,62 h -3 C 81.224,62 81,61.776 81,61.5 v -9 C 81,52.224 81.224,52 81.5,52 h 3 c 0.276,0 0.5,0.224 0.5,0.5 v 9 C 85,61.776 84.776,62 84.5,62 z M 82,61 h 2 v -8 h -2 v 8 z"
   inkscape:connector-curvature="0"
   style="fill:#000000;fill-opacity:1;stroke:none" />
</g><g
     id="g115"
     style="stroke:none">
	<path
   id="path117"
   d="m 24.5,61 h -3 C 21.224,61 21,60.776 21,60.5 v -3 C 21,57.224 21.224,57 21.5,57 h 3 c 0.276,0 0.5,0.224 0.5,0.5 v 3 C 25,60.776 24.776,61 24.5,61 z M 22,60 h 2 v -2 h -2 v 2 z"
   inkscape:connector-curvature="0"
   style="fill:#000000;stroke:none" />
</g><g
     id="g119"
     style="stroke:none">
	<path
   id="path121"
   d="m 29.5,61 h -3 C 26.224,61 26,60.776 26,60.5 v -3 C 26,57.224 26.224,57 26.5,57 h 3 c 0.276,0 0.5,0.224 0.5,0.5 v 3 C 30,60.776 29.776,61 29.5,61 z M 27,60 h 2 v -2 h -2 v 2 z"
   inkscape:connector-curvature="0"
   style="fill:#000000;stroke:none" />
</g><g
     id="g123"
     style="stroke:none">
	<path
   id="path125"
   d="m 34.5,61 h -3 C 31.224,61 31,60.776 31,60.5 v -3 C 31,57.224 31.224,57 31.5,57 h 3 c 0.276,0 0.5,0.224 0.5,0.5 v 3 C 35,60.776 34.776,61 34.5,61 z M 32,60 h 2 v -2 h -2 v 2 z"
   inkscape:connector-curvature="0"
   style="fill:#000000;stroke:none" />
</g><g
     id="g127"
     style="stroke:none">
	<path
   id="path129"
   d="m 39.5,61 h -3 C 36.224,61 36,60.776 36,60.5 v -3 C 36,57.224 36.224,57 36.5,57 h 3 c 0.276,0 0.5,0.224 0.5,0.5 v 3 C 40,60.776 39.776,61 39.5,61 z M 37,60 h 2 v -2 h -2 v 2 z"
   inkscape:connector-curvature="0"
   style="fill:#000000;stroke:none" />
</g><g
     id="g131"
     style="stroke:none">
	<path
   id="path133"
   d="m 44.5,61 h -3 C 41.224,61 41,60.776 41,60.5 v -3 C 41,57.224 41.224,57 41.5,57 h 3 c 0.276,0 0.5,0.224 0.5,0.5 v 3 C 45,60.776 44.776,61 44.5,61 z M 42,60 h 2 v -2 h -2 v 2 z"
   inkscape:connector-curvature="0"
   style="fill:#000000;stroke:none" />
</g><g
     id="g135"
     style="stroke:none">
	<path
   id="path137"
   d="m 49.5,61 h -3 C 46.224,61 46,60.776 46,60.5 v -3 C 46,57.224 46.224,57 46.5,57 h 3 c 0.276,0 0.5,0.224 0.5,0.5 v 3 C 50,60.776 49.776,61 49.5,61 z M 47,60 h 2 v -2 h -2 v 2 z"
   inkscape:connector-curvature="0"
   style="fill:#000000;stroke:none" />
</g><g
     id="g139"
     style="stroke:none">
	<path
   id="path141"
   d="m 54.5,61 h -3 C 51.224,61 51,60.776 51,60.5 v -3 C 51,57.224 51.224,57 51.5,57 h 3 c 0.276,0 0.5,0.224 0.5,0.5 v 3 C 55,60.776 54.776,61 54.5,61 z M 52,60 h 2 v -2 h -2 v 2 z"
   inkscape:connector-curvature="0"
   style="fill:#000000;stroke:none" />
</g><g
     id="g143"
     style="stroke:none">
	<path
   id="path145"
   d="m 59.5,61 h -3 C 56.224,61 56,60.776 56,60.5 v -3 C 56,57.224 56.224,57 56.5,57 h 3 c 0.276,0 0.5,0.224 0.5,0.5 v 3 C 60,60.776 59.776,61 59.5,61 z M 57,60 h 2 v -2 h -2 v 2 z"
   inkscape:connector-curvature="0"
   style="fill:#000000;stroke:none" />
</g><g
     id="g147"
     style="stroke:none">
	<path
   id="path149"
   d="m 64.5,61 h -3 C 61.224,61 61,60.776 61,60.5 v -3 C 61,57.224 61.224,57 61.5,57 h 3 c 0.276,0 0.5,0.224 0.5,0.5 v 3 C 65,60.776 64.776,61 64.5,61 z M 62,60 h 2 v -2 h -2 v 2 z"
   inkscape:connector-curvature="0"
   style="fill:#000000;stroke:none" />
</g><g
     id="g151"
     style="stroke:none">
	<path
   id="path153"
   d="m 69.5,61 h -3 C 66.224,61 66,60.776 66,60.5 v -3 C 66,57.224 66.224,57 66.5,57 h 3 c 0.276,0 0.5,0.224 0.5,0.5 v 3 C 70,60.776 69.776,61 69.5,61 z M 67,60 h 2 v -2 h -2 v 2 z"
   inkscape:connector-curvature="0"
   style="fill:#000000;stroke:none" />
</g><g
     id="g155"
     style="stroke:none">
	<path
   id="path157"
   d="m 74.5,61 h -3 C 71.224,61 71,60.776 71,60.5 v -3 C 71,57.224 71.224,57 71.5,57 h 3 c 0.276,0 0.5,0.224 0.5,0.5 v 3 C 75,60.776 74.776,61 74.5,61 z M 72,60 h 2 v -2 h -2 v 2 z"
   inkscape:connector-curvature="0"
   style="fill:#000000;stroke:none" />
</g><g
     id="g159"
     style="stroke:none">
	<path
   id="path161"
   d="m 79.5,61 h -3 C 76.224,61 76,60.776 76,60.5 v -3 C 76,57.224 76.224,57 76.5,57 h 3 c 0.276,0 0.5,0.224 0.5,0.5 v 3 C 80,60.776 79.776,61 79.5,61 z M 77,60 h 2 v -2 h -2 v 2 z"
   inkscape:connector-curvature="0"
   style="fill:#000000;stroke:none" />
</g><g
     id="g163"
     style="stroke:none">
	<path
   id="path165"
   d="m 29.5,66 h -3 C 26.224,66 26,65.776 26,65.5 v -3 C 26,62.224 26.224,62 26.5,62 h 3 c 0.276,0 0.5,0.224 0.5,0.5 v 3 C 30,65.776 29.776,66 29.5,66 z M 27,65 h 2 v -2 h -2 v 2 z"
   inkscape:connector-curvature="0"
   style="fill:#000000;stroke:none" />
</g><g
     id="g167"
     style="stroke:none">
	<path
   id="path169"
   d="m 34.5,66 h -3 C 31.224,66 31,65.776 31,65.5 v -3 C 31,62.224 31.224,62 31.5,62 h 3 c 0.276,0 0.5,0.224 0.5,0.5 v 3 C 35,65.776 34.776,66 34.5,66 z M 32,65 h 2 v -2 h -2 v 2 z"
   inkscape:connector-curvature="0"
   style="fill:#000000;stroke:none" />
</g><g
     id="g171"
     style="stroke:none">
	<path
   id="path173"
   d="m 39.5,66 h -3 C 36.224,66 36,65.776 36,65.5 v -3 C 36,62.224 36.224,62 36.5,62 h 3 c 0.276,0 0.5,0.224 0.5,0.5 v 3 C 40,65.776 39.776,66 39.5,66 z M 37,65 h 2 v -2 h -2 v 2 z"
   inkscape:connector-curvature="0"
   style="fill:#000000;stroke:none" />
</g><g
     id="g175"
     style="stroke:none">
	<path
   id="path177"
   d="m 64.5,66 h -23 C 41.224,66 41,65.776 41,65.5 v -3 C 41,62.224 41.224,62 41.5,62 h 23 c 0.276,0 0.5,0.224 0.5,0.5 v 3 C 65,65.776 64.776,66 64.5,66 z M 42,65 H 64 V 63 H 42 v 2 z"
   inkscape:connector-curvature="0"
   style="fill:#000000;stroke:none" />
</g><g
     id="g179"
     style="stroke:none">
	<path
   id="path181"
   d="m 69.5,66 h -3 C 66.224,66 66,65.776 66,65.5 v -3 C 66,62.224 66.224,62 66.5,62 h 3 c 0.276,0 0.5,0.224 0.5,0.5 v 3 C 70,65.776 69.776,66 69.5,66 z M 67,65 h 2 v -2 h -2 v 2 z"
   inkscape:connector-curvature="0"
   style="fill:#000000;stroke:none" />
</g><g
     id="g183"
     style="stroke:none">
	<path
   id="path185"
   d="m 74.5,66 h -3 C 71.224,66 71,65.776 71,65.5 v -3 C 71,62.224 71.224,62 71.5,62 h 3 c 0.276,0 0.5,0.224 0.5,0.5 v 3 C 75,65.776 74.776,66 74.5,66 z M 72,65 h 2 v -2 h -2 v 2 z"
   inkscape:connector-curvature="0"
   style="fill:#000000;stroke:none" />
</g><g
     id="g187"
     style="stroke:none">
	<path
   id="path189"
   d="m 79.5,66 h -3 C 76.224,66 76,65.776 76,65.5 v -3 C 76,62.224 76.224,62 76.5,62 h 3 c 0.276,0 0.5,0.224 0.5,0.5 v 3 C 80,65.776 79.776,66 79.5,66 z M 77,65 h 2 v -2 h -2 v 2 z"
   inkscape:connector-curvature="0"
   style="fill:#000000;stroke:none" />
</g><g
     id="g191"
     style="stroke:none">
	<path
   id="path193"
   d="m 84.5,51 h -3 C 81.224,51 81,50.776 81,50.5 v -3 C 81,47.224 81.224,47 81.5,47 h 3 c 0.276,0 0.5,0.224 0.5,0.5 v 3 C 85,50.776 84.776,51 84.5,51 z M 82,50 h 2 v -2 h -2 v 2 z"
   inkscape:connector-curvature="0"
   style="fill:#000000;stroke:none" />
</g><g
     id="g195"
     style="stroke:none">
	
</g></g>
<flowRoot
   xml:space="preserve"
   id="flowRoot3324"
   style="font-size:10px;font-style:normal;font-variant:normal;font-weight:300;font-stretch:normal;line-height:125%;letter-spacing:0px;word-spacing:0px;fill:#ffffff;fill-opacity:1;stroke:none;font-family:Neo Sans Std;-inkscape-font-specification:Neo Sans Std Light"><flowRegion
     id="flowRegion3326"><rect
       id="rect3328"
       width="39.849663"
       height="14.232022"
       x="32.808556"
       y="79.775551"
       style="fill:#ffffff;fill-opacity:1;font-size:10px" /></flowRegion><flowPara
     id="flowPara3330">kodespejder</flowPara></flowRoot><path
   sodipodi:type="arc"
   style="fill:#000000;fill-opacity:1;stroke:#ffffff;stroke-width:0.9997074;stroke-miterlimit:4;stroke-opacity:1;stroke-dasharray:0.99970741, 0.99970741;stroke-dashoffset:0"
   id="path4173"
   sodipodi:cx="51.160374"
   sodipodi:cy="56.929405"
   sodipodi:rx="23.745005"
   sodipodi:ry="23.745005"
   d="m 74.905378,56.929405 a 23.745005,23.745005 0 1 1 -47.490009,0 23.745005,23.745005 0 1 1 47.490009,0 z"
   transform="matrix(1.7074996,0,0,1.7074996,-37.980823,-47.455598)" /><flowRoot
   xml:space="preserve"
   id="flowRoot4175"
   style="fill:black;stroke:none;stroke-opacity:1;stroke-width:1px;stroke-linejoin:miter;stroke-linecap:butt;fill-opacity:1;font-family:Neo Sans Std;font-style:normal;font-weight:300;font-size:14px;line-height:125%;letter-spacing:0px;word-spacing:0px;-inkscape-font-specification:Neo Sans Std Light;font-stretch:normal;font-variant:normal"><flowRegion
     id="flowRegion4177"><rect
       id="rect4179"
       width="72.808029"
       height="63.220139"
       x="13.78259"
       y="20.300676" /></flowRegion><flowPara
     id="flowPara4181" /></flowRoot><flowRoot
   xml:space="preserve"
   id="flowRoot4191"
   style="font-size:4.39041376px;font-style:normal;font-variant:normal;font-weight:normal;font-stretch:normal;text-align:center;line-height:100%;letter-spacing:0px;word-spacing:0px;writing-mode:lr-tb;text-anchor:middle;fill:#ffffff;fill-opacity:1;stroke:none;font-family:Open Sans;-inkscape-font-specification:Open Sans"
   transform="matrix(3.6443035,0,0,3.6443035,-13.739824,-28.964175)"><flowRegion
     id="flowRegion4193"><rect
       id="rect4195"
       width="22.533957"
       height="11.579882"
       x="6.1444726"
       y="17.004839"
       style="font-size:4.39041376px;font-style:normal;font-variant:normal;font-weight:normal;font-stretch:normal;text-align:center;line-height:100%;writing-mode:lr-tb;text-anchor:middle;fill:#ffffff;fill-opacity:1;font-family:Open Sans;-inkscape-font-specification:Open Sans"
       ry="0" /></flowRegion><flowPara
     id="flowPara4199"
     style="font-size:4.39041376px;font-style:normal;font-variant:normal;font-weight:normal;font-stretch:normal;text-align:center;line-height:100%;writing-mode:lr-tb;text-anchor:middle;font-family:Open Sans;-inkscape-font-specification:Open Sans">kode.</flowPara><flowPara
     style="font-size:4.39041376px;font-style:normal;font-variant:normal;font-weight:normal;font-stretch:normal;text-align:center;line-height:100%;writing-mode:lr-tb;text-anchor:middle;font-family:Open Sans;-inkscape-font-specification:Open Sans"
     id="flowPara3092"><flowSpan
   style="font-size:4.39041376px;font-style:normal;font-variant:normal;font-weight:normal;font-stretch:normal;text-align:center;line-height:100%;writing-mode:lr-tb;text-anchor:middle;font-family:Open Sans;-inkscape-font-specification:Open Sans"
   id="flowSpan3094">spejder</flowSpan>();</flowPara></flowRoot><flowRoot
   xml:space="preserve"
   id="flowRoot3864"
   style="fill:black;stroke:none;stroke-opacity:1;stroke-width:1px;stroke-linejoin:miter;stroke-linecap:butt;fill-opacity:1;font-family:Neo Sans Std;font-style:normal;font-weight:300;font-size:14px;line-height:125%;letter-spacing:0px;word-spacing:0px;-inkscape-font-specification:Neo Sans Std Light;font-stretch:normal;font-variant:normal"><flowRegion
     id="flowRegion3866"><rect
       id="rect3868"
       width="77.542374"
       height="111.01695"
       x="28.813559"
       y="-19.279661" /></flowRegion><flowPara
     id="flowPara3870"></flowPara></flowRoot><flowRoot
   xml:space="preserve"
   id="flowRoot3872"
   style="fill:black;stroke:none;stroke-opacity:1;stroke-width:1px;stroke-linejoin:miter;stroke-linecap:butt;fill-opacity:1;font-family:Neo Sans Std;font-style:normal;font-weight:300;font-size:14px;line-height:125%;letter-spacing:0px;word-spacing:0px;-inkscape-font-specification:Neo Sans Std Light;font-stretch:normal;font-variant:normal"><flowRegion
     id="flowRegion3874"><rect
       id="rect3876"
       width="11.864407"
       height="14.618644"
       x="15.889831"
       y="93.644066" /></flowRegion><flowPara
     id="flowPara3878"></flowPara></flowRoot><flowRoot
   xml:space="preserve"
   id="flowRoot3880"
   style="fill:black;stroke:none;stroke-opacity:1;stroke-width:1px;stroke-linejoin:miter;stroke-linecap:butt;fill-opacity:1;font-family:Neo Sans Std;font-style:normal;font-weight:300;font-size:14px;line-height:125%;letter-spacing:0px;word-spacing:0px;-inkscape-font-specification:Neo Sans Std Light;font-stretch:normal;font-variant:normal"><flowRegion
     id="flowRegion3882"><rect
       id="rect3884"
       width="83.05085"
       height="129.23729"
       x="10.169492"
       y="22.245762" /></flowRegion><flowPara
     id="flowPara3886"></flowPara></flowRoot></svg>